<?xml version="1.0" encoding="iso-8859-1"?>
<!-- Uploaded to: SVG Repo, www.svgrepo.com, Generator: SVG Repo Mixer Tools -->
<svg fill="#000000" height="800px" width="800px" version="1.1" id="Layer_1" xmlns="http://www.w3.org/2000/svg" xmlns:xlink="http://www.w3.org/1999/xlink" 
	 viewBox="0 0 512 512" xml:space="preserve">
<g>
	<g>
		<path d="M494.706,182.069c-38.139,1.337-79.142-11.217-114.133-33.924l8.432-8.432c19.534-19.534,19.534-51.32,0-70.855
			c-19.58-19.582-51.272-19.583-70.855,0l-11.81,11.81l-11.81-11.81c-6.521-6.521-17.096-6.521-23.618,0l-94.474,94.474
			c-6.522,6.521-6.522,17.096,0,23.618l11.809,11.809L14.687,372.321c-19.581,19.579-19.584,51.274,0,70.856
			c19.535,19.535,51.32,19.534,70.855,0l170.182-170.182c22.703,34.989,35.254,75.99,33.925,114.132
			c-0.407,11.692,10.999,20.083,21.972,16.425c46.218-15.406,88.856-41.757,123.305-76.206
			c34.449-34.448,60.8-77.086,76.206-123.305C514.809,193.004,506.338,181.677,494.706,182.069z M341.768,92.477
			c6.528-6.528,17.089-6.528,23.618,0c6.511,6.512,6.511,17.106,0,23.618l-11.588,11.588c-5.549-4.978-7.294-6.851-23.84-23.397
			L341.768,92.477z M61.924,419.558c-6.511,6.512-17.106,6.512-23.618,0c-6.527-6.527-6.528-17.09,0-23.618l173.561-173.561
			c16.522,16.522,18.413,18.284,23.398,23.841L61.924,419.558z M322.388,363.767c-3.841-44.695-22.082-89.638-51.457-127.017
			c-0.037-0.046-0.07-0.091-0.108-0.137c-12.018-15.27-17.884-20.398-58.956-61.471l70.855-70.856
			c42.207,42.207,46.399,47.042,61.1,58.624c0.389,0.338,0.789,0.655,1.2,0.952c18.526,14.414,39.146,26.313,60.815,34.988
			c21.504,8.606,43.772,13.992,65.526,15.917C442.86,281.499,389.114,335.258,322.388,363.767z"/>
	</g>
</g>
<g>
	<g>
		<path d="M404.266,234.754c-7.237-5.718-17.74-4.49-23.458,2.748c-10.435,13.201-22.425,25.196-35.636,35.652
			c-7.234,5.724-8.457,16.227-2.733,23.459c5.726,7.235,16.229,8.454,23.459,2.732c15.242-12.061,29.076-25.901,41.115-41.133
			C412.732,250.976,411.502,240.473,404.266,234.754z"/>
	</g>
</g>
</svg>