<svg width="200" height="220" viewBox="0 0 200 220" fill="none" xmlns="http://www.w3.org/2000/svg">
    <!-- Staff glow -->
    <ellipse cx="68" cy="180" rx="8" ry="18" fill="rgba(201,146,42,0.06)"/>

    <!-- Robe / cloak body -->
    <path d="M 85 90 Q 60 110 55 160 Q 60 185 100 188 Q 140 185 145 160 Q 140 110 115 90 Z"
        fill="#1a0e06" stroke="rgba(201,146,42,0.2)" stroke-width="1"/>
    <!-- Robe folds -->
    <path d="M 90 95 Q 80 130 78 160" stroke="rgba(201,146,42,0.1)" stroke-width="0.8" fill="none"/>
    <path d="M 110 95 Q 120 130 122 160" stroke="rgba(201,146,42,0.1)" stroke-width="0.8" fill="none"/>

    <!-- Hood/cloak outer -->
    <path d="M 72 75 Q 65 60 75 45 Q 88 28 100 26 Q 112 28 125 45 Q 135 60 128 75 Q 118 88 115 90 Q 100 95 85 90 Z"
        fill="#160d05" stroke="rgba(201,146,42,0.25)" stroke-width="1"/>

    <!-- Face (shadowed) -->
    <ellipse cx="100" cy="58" rx="16" ry="18" fill="#2a1508" opacity="0.8"/>
    <!-- Eyes glowing faintly -->
    <ellipse cx="94" cy="56" rx="3" ry="2" fill="rgba(201,146,42,0.35)"/>
    <ellipse cx="106" cy="56" rx="3" ry="2" fill="rgba(201,146,42,0.35)"/>

    <!-- Staff (left hand) -->
    <line x1="68" y1="185" x2="72" y2="100" stroke="rgba(201,146,42,0.4)" stroke-width="2" stroke-linecap="round"/>
    <!-- Staff orb -->
    <circle cx="72" cy="95" r="5" fill="none" stroke="rgba(201,146,42,0.6)" stroke-width="1.5"/>
    <circle cx="72" cy="95" r="2.5" fill="rgba(201,146,42,0.4)"/>
    <!-- Staff glow aura -->
    <circle cx="72" cy="95" r="9" fill="rgba(201,146,42,0.07)" style="animation: pulse 2s ease-in-out infinite"/>

    <!-- Book (right hand) -->
    <rect x="118" y="118" width="22" height="28" rx="2"
        fill="#1a0e06" stroke="rgba(201,146,42,0.35)" stroke-width="1"/>
    <line x1="129" y1="119" x2="129" y2="145" stroke="rgba(201,146,42,0.2)" stroke-width="0.8"/>
    <!-- Book pages hint -->
    <line x1="120" y1="124" x2="128" y2="124" stroke="rgba(201,146,42,0.15)" stroke-width="0.5"/>
    <line x1="120" y1="128" x2="128" y2="128" stroke="rgba(201,146,42,0.15)" stroke-width="0.5"/>
    <line x1="120" y1="132" x2="128" y2="132" stroke="rgba(201,146,42,0.15)" stroke-width="0.5"/>
    <line x1="130" y1="124" x2="138" y2="124" stroke="rgba(201,146,42,0.15)" stroke-width="0.5"/>
    <line x1="130" y1="128" x2="138" y2="128" stroke="rgba(201,146,42,0.15)" stroke-width="0.5"/>

    <!-- Hem of robe -->
    <path d="M 55 175 Q 60 190 100 192 Q 140 190 145 175"
        stroke="rgba(201,146,42,0.15)" stroke-width="1" fill="none"/>

    <!-- Shadow on ground -->
    <ellipse cx="100" cy="195" rx="38" ry="6" fill="rgba(0,0,0,0.35)"/>
</svg>
